HIERARCHY
ROOT Hips
{
	OFFSET -0.001795 -0.223333 0.028219
	CHANNELS 6 Xposition Yposition Zposition Zrotation Yrotation Xrotation 
	JOINT LeftUpLeg
	{
		OFFSET 0.069520 -0.091406 -0.006815
		CHANNELS 3 Zrotation Yrotation Xrotation
		JOINT LeftLeg
		{
			OFFSET 0.034277 -0.375199 -0.004496
			CHANNELS 3 Zrotation Yrotation Xrotation
			JOINT LeftFoot
			{
				OFFSET -0.013596 -0.397961 -0.043693
				CHANNELS 3 Zrotation Yrotation Xrotation
				JOINT LeftToe
				{
					OFFSET 0.026358 -0.055791 0.119288
					CHANNELS 3 Zrotation Yrotation Xrotation
					End Site
					{
						OFFSET 0.000000 0.000000 0.000000
					}
				}
			}
		}
	}
	JOINT RightUpLeg
	{
		OFFSET -0.067670 -0.090522 -0.004320
		CHANNELS 3 Zrotation Yrotation Xrotation
		JOINT RightLeg
		{
			OFFSET -0.038290 -0.382569 -0.008850
			CHANNELS 3 Zrotation Yrotation Xrotation
			JOINT RightFoot
			{
				OFFSET 0.015774 -0.398415 -0.042312
				CHANNELS 3 Zrotation Yrotation Xrotation
				JOINT RightToe
				{
					OFFSET -0.025372 -0.048144 0.123348
					CHANNELS 3 Zrotation Yrotation Xrotation
					End Site
					{
						OFFSET 0.000000 0.000000 0.000000
					}
				}
			}
		}
	}
	JOINT Spine
	{
		OFFSET -0.002533 0.108963 -0.026696
		CHANNELS 3 Zrotation Yrotation Xrotation
		JOINT Spine1
		{
			OFFSET 0.005487 0.135180 0.001092
			CHANNELS 3 Zrotation Yrotation Xrotation
			JOINT Spine2
			{
				OFFSET 0.001457 0.052922 0.025425
				CHANNELS 3 Zrotation Yrotation Xrotation
				JOINT Neck
				{
					OFFSET -0.002778 0.213870 -0.042857
					CHANNELS 3 Zrotation Yrotation Xrotation
					JOINT Head
					{
						OFFSET 0.005152 0.064970 0.051349
						CHANNELS 3 Zrotation Yrotation Xrotation
						End Site
						{
							OFFSET 0.000000 0.000000 0.000000
						}
					}
				}
				JOINT LeftShoulder
				{
					OFFSET 0.078845 0.121749 -0.034090
					CHANNELS 3 Zrotation Yrotation Xrotation
					JOINT LeftArm
					{
						OFFSET 0.090977 0.030469 -0.008868
						CHANNELS 3 Zrotation Yrotation Xrotation
						JOINT LeftForeArm
						{
							OFFSET 0.259612 -0.012772 -0.027456
							CHANNELS 3 Zrotation Yrotation Xrotation
							JOINT LeftHand
							{
								OFFSET 0.249234 0.008986 -0.001171
								CHANNELS 3 Zrotation Yrotation Xrotation
								End Site
								{
									OFFSET 0.000000 0.000000 0.000000
								}
							}
						}
					}
				}
				JOINT RightShoulder
				{
					OFFSET -0.081759 0.118833 -0.038615
					CHANNELS 3 Zrotation Yrotation Xrotation
					JOINT RightArm
					{
						OFFSET -0.096012 0.032551 -0.009143
						CHANNELS 3 Zrotation Yrotation Xrotation
						JOINT RightForeArm
						{
							OFFSET -0.253742 -0.013329 -0.021401
							CHANNELS 3 Zrotation Yrotation Xrotation
							JOINT RightHand
							{
								OFFSET -0.255298 0.007772 -0.005559
								CHANNELS 3 Zrotation Yrotation Xrotation
								End Site
								{
									OFFSET 0.000000 0.000000 0.000000
								}
							}
						}
					}
				}
			}
		}
	}
}
MOTION
Frames: 5
Frame Time: 0.050000
-0.039078 0.944388 1.033277 1.246308 7.658693 8.781812 -4.800666 -0.593080 -6.129708 4.732396 -0.067654 -5.226459 2.994566 9.912890 10.509735 0.000000 0.000000 0.000000 -1.035725 0.912122 -9.914522 -1.185829 0.037064 -2.062246 6.702734 10.809607 9.454391 0.000000 0.000000 0.000000 8.339674 -0.745077 3.167214 0.797052 -0.644163 3.849547 -5.559010 0.810738 0.465057 13.021589 -4.992870 -20.294622 0.000000 0.000000 0.000000 -26.727764 -33.399241 16.808799 -11.402435 -23.017261 0.231275 23.851886 -43.162556 -7.871404 0.000000 0.000000 0.000000 27.837932 19.789058 12.763655 24.158504 15.860118 -0.127471 -63.152731 75.441215 -45.471815 0.000000 0.000000 0.000000 
-0.038036 0.944620 1.032557 1.528557 7.546604 9.191041 -5.066198 -0.676335 -6.734881 4.521486 -0.075854 -4.932505 3.014996 9.982632 10.643157 0.000000 0.000000 0.000000 -1.492170 0.903690 -10.110726 -1.087974 0.003264 -2.541623 6.787841 10.828676 9.711351 0.000000 0.000000 0.000000 8.695999 -0.757030 2.921935 0.616404 -0.581937 4.325692 -5.385161 1.868677 0.052318 13.878836 -5.238477 -20.822645 0.000000 0.000000 0.000000 -28.214335 -32.837766 16.317044 -12.654077 -21.490827 0.371390 24.339433 -46.273065 -8.765130 0.000000 0.000000 0.000000 27.196003 20.960688 13.814356 21.474526 17.365400 -0.087322 -56.278144 67.642055 -34.407480 0.000000 0.000000 0.000000 
-0.036859 0.944640 1.032243 1.835812 7.396377 9.346059 -5.475798 -0.690852 -6.786194 4.488643 -0.065071 -5.070237 3.024896 10.032057 10.801875 0.000000 0.000000 0.000000 -1.670409 0.890765 -10.056611 -1.538642 0.024019 -2.914093 6.836972 10.912809 9.718913 0.000000 0.000000 0.000000 9.174905 -0.775985 2.733038 0.395786 -0.509638 5.006886 -5.342708 2.994476 -0.372510 14.658396 -5.617145 -20.603012 0.000000 0.000000 0.000000 -29.469512 -31.554213 15.127818 -14.818401 -19.014518 0.513456 27.821009 -52.368414 -11.991285 0.000000 0.000000 0.000000 26.415671 21.243102 14.210340 18.607731 19.199178 -0.085077 -49.856998 60.644452 -25.860931 0.000000 0.000000 0.000000 
-0.035822 0.944643 1.032131 2.068847 7.772401 9.550931 -5.922078 -0.722576 -6.975806 4.768055 -0.076177 -5.098688 2.794367 9.717899 10.841297 0.000000 0.000000 0.000000 -2.115752 0.855254 -9.944979 -1.291315 -0.020331 -3.357637 6.681925 10.591794 9.794528 0.000000 0.000000 0.000000 9.728815 -0.814819 2.617830 0.315579 -0.471546 4.936990 -5.231067 4.122777 0.146804 15.194105 -5.694904 -21.142233 0.000000 0.000000 0.000000 -30.879297 -30.880027 14.266857 -15.978957 -17.018442 0.535849 33.081156 -58.022652 -16.709130 0.000000 0.000000 0.000000 25.482415 21.276755 14.501156 16.120110 20.134605 -0.260901 -46.697210 54.836167 -21.018173 0.000000 0.000000 0.000000 
-0.035115 0.944491 1.032068 2.404317 8.365137 9.417615 -6.398011 -0.681549 -6.645719 4.960653 -0.065045 -5.370865 2.438079 9.203075 10.837846 0.000000 0.000000 0.000000 -2.410234 0.812219 -9.653413 -1.435568 -0.005635 -3.347848 6.344646 10.140944 9.471419 0.000000 0.000000 0.000000 10.186811 -0.862733 2.705195 0.245352 -0.452987 5.007924 -5.241270 5.028077 0.251450 15.535579 -5.779601 -21.159286 0.000000 0.000000 0.000000 -31.343584 -30.082327 13.129005 -17.008798 -15.544405 0.575228 38.803828 -62.883904 -22.302226 0.000000 0.000000 0.000000 25.291976 20.978291 14.697553 14.361018 19.941171 -0.468363 -45.099457 51.406663 -18.594245 0.000000 0.000000 0.000000 
